<?xml version="1.0" encoding="UTF-8"?><svg id="_Слой_2" xmlns="http://www.w3.org/2000/svg" viewBox="0 0 26.64 30"><defs><style>.cls-1{fill:#1d3050;}</style></defs><g id="icons"><g id="icon_level_up"><path class="cls-1" d="M2.66,30c-1.47,0-2.66-1.17-2.66-2.62s1.19-2.62,2.66-2.62h21.32c1.47,0,2.66,1.17,2.66,2.62s-1.19,2.62-2.66,2.62H2.66Z"/><path class="cls-1" d="M3.41,9.2L12.1.5c.67-.67,1.76-.67,2.43,0l8.69,8.7c1.06,1.06.3,2.85-1.22,2.85h-4.51v9.95c0,.66-.55,1.2-1.22,1.2h-6.1c-.67,0-1.22-.54-1.22-1.2v-9.95h-4.34c-1.51,0-2.27-1.79-1.22-2.85Z"/></g></g></svg>