<?xml version="1.0" encoding="UTF-8"?><svg id="_Слой_2" xmlns="http://www.w3.org/2000/svg" width="50" height="50" viewBox="0 0 50 50"><g id="_Слой_2-2"><g id="_Слой_1-2"><path d="M0,0h50v50H0V0Z" style="fill:#f0db4f;"/><path d="M45.9,38.1c-.4-2.3-1.8-4.2-6.3-6-1.5-.7-3.2-1.2-3.8-2.4-.2-.7-.2-1.1,0-1.5.3-1.3,1.9-1.7,3.2-1.4.8.3,1.6.9,2,1.9q2.2-1.4,3.7-2.4c-.5-.9-.8-1.2-1.2-1.6-1.3-1.5-3.1-2.2-5.9-2.1-.5,0-1,.1-1.5.2-1.4.4-2.8,1.1-3.5,2.1-2.4,2.7-1.7,7.4,1.2,9.3,2.8,2.1,7,2.6,7.5,4.6.5,2.4-1.8,3.2-4.1,3-1.7-.3-2.6-1.2-3.7-2.8-1.2.7-2.5,1.5-3.8,2.2.5,1,.9,1.5,1.7,2.3,3.6,3.7,12.7,3.5,14.3-2.1,0-.2.5-1.5.2-3.4h0v.1ZM27.2,23h-4.7v12.1c0,4.1.1,4.9-.3,5.7-.7,1.4-2.5,1.2-3.3,1-.8-.4-1.2-1-1.7-1.8-.1-.2-.2-.4-.3-.4-1.3.8-2.5,1.5-3.8,2.3.6,1.3,1.6,2.4,2.8,3.2,1.8,1.1,4.2,1.4,6.7.8,1.6-.5,3-1.5,3.8-3,1.1-2,.8-4.3.8-7v-12.9h0Z" style="fill:#323330;"/><path d="M8.3,19.75h-2.8V5.9l-2.25,1.14v-2.94l2.48-1.38h2.57v17.04Z" style="fill:#323330;"/><path d="M14.44,19.37c-.7-.37-1.26-.9-1.69-1.61s-.7-1.55-.81-2.53h0s2.8-.01,2.8-.01h0c.07.64.29,1.12.66,1.47s.85.52,1.44.52c.66,0,1.18-.22,1.54-.66s.54-1.06.54-1.86v-1.43c0-.8-.17-1.41-.52-1.85s-.84-.66-1.47-.66c-.44,0-.83.12-1.19.35s-.63.56-.84.98h-2.59V2.71h8.92v2.68h-6.12v3.42c.27-.24.6-.43.99-.56s.79-.2,1.19-.2c.93,0,1.73.2,2.39.61s1.17,1,1.52,1.78.52,1.72.52,2.82v1.43c0,1.1-.19,2.04-.58,2.82s-.95,1.38-1.68,1.79-1.62.62-2.65.62c-.88,0-1.67-.18-2.37-.55Z" style="fill:#323330;"/></g></g></svg>