<?xml version="1.0" encoding="UTF-8"?>
<svg id="_Слой_2" xmlns="http://www.w3.org/2000/svg" version="1.1" viewBox="0 0 50 50">
  <!-- Generator: Adobe Illustrator 29.0.1, SVG Export Plug-In . SVG Version: 2.1.0 Build 192)  -->
  <defs>
    <style>
      .st0 {
        fill: #f0db4f;
      }

      .st1 {
        fill: #323330;
      }

      .st2 {
        display: none;
      }
    </style>
  </defs>
  <g id="_Слой_1-2">
    <path class="st0" d="M0,0h50v50H0V0Z"/>
    <path class="st1" d="M45.9,38.1c-.4-2.3-1.8-4.2-6.3-6-1.5-.7-3.2-1.2-3.8-2.4-.2-.7-.2-1.1,0-1.5.3-1.3,1.9-1.7,3.2-1.4.8.3,1.6.9,2,1.9,2.2-1.4,2.2-1.4,3.7-2.4-.5-.9-.8-1.2-1.2-1.6-1.3-1.5-3.1-2.2-5.9-2.1-.5,0-1,.1-1.5.2-1.4.4-2.8,1.1-3.5,2.1-2.4,2.7-1.7,7.4,1.2,9.3,2.8,2.1,7,2.6,7.5,4.6.5,2.4-1.8,3.2-4.1,3-1.7-.3-2.6-1.2-3.7-2.8-1.2.7-2.5,1.5-3.8,2.2.5,1,.9,1.5,1.7,2.3,3.6,3.7,12.7,3.5,14.3-2.1,0-.2.5-1.5.2-3.4h0ZM27.2,23h-4.7c0,4,0,8,0,12.1s.1,4.9-.3,5.7c-.7,1.4-2.5,1.2-3.3,1-.8-.4-1.2-1-1.7-1.8-.1-.2-.2-.4-.3-.4-1.3.8-2.5,1.5-3.8,2.3.6,1.3,1.6,2.4,2.8,3.2,1.8,1.1,4.2,1.4,6.7.8,1.6-.5,3-1.5,3.8-3,1.1-2,.8-4.3.8-7,0-4.3,0-8.6,0-12.9h0Z"/>
    <path class="st1" d="M6.7,21.6c-.9-.4-1.6-1-2.1-1.8s-.8-1.7-.9-2.8h3.6c0,.4.2.7.3,1s.4.5.7.6.6.2.9.2c.7,0,1.2-.2,1.5-.6s.5-.9.5-1.6v-.4c0-.7-.1-1.2-.4-1.6s-.7-.6-1.3-.6h-1.6v-3.4h1.6c.4,0,.8-.2,1-.5s.4-.8.4-1.4v-.3c0-.6-.1-1-.4-1.3s-.6-.5-1.1-.5-.6,0-.9.2-.5.4-.7.7-.3.7-.4,1.1h-3.6c.1-1.1.4-2.1.9-2.9s1.2-1.4,2-1.9,1.7-.6,2.7-.6c1.6,0,2.9.4,3.8,1.3s1.3,2,1.3,3.5v.6c0,.9-.2,1.6-.6,2.2s-1,1.1-1.8,1.4c.9.2,1.6.7,2.1,1.4s.7,1.7.7,2.8v.6c0,1.1-.2,2-.6,2.8s-1,1.3-1.9,1.7-1.8.6-2.9.6-2.1-.2-3-.6Z"/>
  </g>
  <g class="st2">
    <path class="st1" d="M6.7,21.6c-.9-.4-1.6-1-2.1-1.8s-.8-1.7-.9-2.8h3.6c0,.4.2.7.3,1s.4.5.7.6.6.2.9.2c.7,0,1.2-.2,1.5-.6s.5-.9.5-1.6v-.4c0-.7-.1-1.2-.4-1.6s-.7-.6-1.3-.6h-1.6v-3.4h1.6c.4,0,.8-.2,1-.5s.4-.8.4-1.4v-.3c0-.6-.1-1-.4-1.3s-.6-.5-1.1-.5-.6,0-.9.2-.5.4-.7.7-.3.7-.4,1.1h-3.6c.1-1.1.4-2.1.9-2.9s1.2-1.4,2-1.9,1.7-.6,2.7-.6c1.6,0,2.9.4,3.8,1.3s1.3,2,1.3,3.5v.6c0,.9-.2,1.6-.6,2.2s-1,1.1-1.8,1.4c.9.2,1.6.7,2.1,1.4s.7,1.7.7,2.8v.6c0,1.1-.2,2-.6,2.8s-1,1.3-1.9,1.7-1.8.6-2.9.6-2.1-.2-3-.6Z"/>
  </g>
</svg>