<svg xmlns="http://www.w3.org/2000/svg" width="30" height="23.33" viewBox="0 0 30 23.33">
  <defs>
    <style>
      .a {
        fill: #1d3050;
      }
    </style>
  </defs>
  <g>
    <path class="a" d="M12,23.33H2.05C.23,23.32-.51,22.07.41,20.5c1.82-3.13,3.65-6.24,5.46-9.36a2.07,2.07,0,0,1,2-1.13c6.73,0,13.47,0,20.2,0,1.72,0,2.46,1.27,1.6,2.75-1.84,3.18-3.7,6.34-5.54,9.51a2,2,0,0,1-1.92,1C18.78,23.31,15.38,23.33,12,23.33Z"/>
    <path class="a" d="M25,8.31H24c-5.34,0-10.69,0-16,0a3.72,3.72,0,0,0-3.54,2c-1.25,2.2-2.55,4.37-3.84,6.55-.12.21-.25.41-.49.78,0-.45-.06-.71-.06-1V3.82Q0,0,3.88,0C5.69,0,7.5,0,9.31,0a3.37,3.37,0,0,1,2.54,1c.33.34.69.65,1,1A3.81,3.81,0,0,0,16,3.35c1.76,0,3.51,0,5.27,0,2.44,0,3.74,1.3,3.77,3.75Z"/>
  </g>
</svg>
