<?xml version="1.0" encoding="UTF-8"?><svg id="_Слой_2" xmlns="http://www.w3.org/2000/svg" viewBox="0 0 50 50"><defs><style>.cls-1{fill:#f0db4f;}.cls-2{fill:#323330;}</style></defs><g id="_Слой_2-2"><g id="_Слой_2-2"><g id="_Слой_1-2"><path class="cls-1" d="M0,0h50v50H0V0Z"/><path class="cls-2" d="M45.9,38.1c-.4-2.3-1.8-4.2-6.3-6-1.5-.7-3.2-1.2-3.8-2.4-.2-.7-.2-1.1,0-1.5.3-1.3,1.9-1.7,3.2-1.4.8.3,1.6.9,2,1.9q2.2-1.4,3.7-2.4c-.5-.9-.8-1.2-1.2-1.6-1.3-1.5-3.1-2.2-5.9-2.1-.5,0-1,.1-1.5.2-1.4.4-2.8,1.1-3.5,2.1-2.4,2.7-1.7,7.4,1.2,9.3,2.8,2.1,7,2.6,7.5,4.6.5,2.4-1.8,3.2-4.1,3-1.7-.3-2.6-1.2-3.7-2.8-1.2.7-2.5,1.5-3.8,2.2.5,1,.9,1.5,1.7,2.3,3.6,3.7,12.7,3.5,14.3-2.1,0-.2.5-1.5.2-3.4h0v.1ZM27.2,23h-4.7v12.1c0,4.1.1,4.9-.3,5.7-.7,1.4-2.5,1.2-3.3,1-.8-.4-1.2-1-1.7-1.8-.1-.2-.2-.4-.3-.4-1.3.8-2.5,1.5-3.8,2.3.6,1.3,1.6,2.4,2.8,3.2,1.8,1.1,4.2,1.4,6.7.8,1.6-.5,3-1.5,3.8-3,1.1-2,.8-4.3.8-7v-12.9h0Z"/><path class="cls-2" d="M6.2,19.3c-.7-.8-1-1.8-1-3.3v-1.4h2.6v1.6c0,1.1.5,1.7,1.4,1.7s1.4-.6,1.4-1.7v-3.9c0-1.1-.5-1.7-1.4-1.7s-1.4.6-1.4,1.7h0c0,.1-2.6.1-2.6.1l.5-9.8h7.2v2.5h-4.8l-.2,4.2h0c.5-.8,1.3-1.3,2.4-1.3s1.8.3,2.3,1,.8,1.7.8,3v4c0,1.4-.4,2.5-1,3.3-.7.8-1.7,1.1-3.1,1.1s-2.3-.4-3-1.1h-.1Z"/></g></g></g></svg>