<?xml version="1.0" encoding="UTF-8"?><svg id="_Слой_2" xmlns="http://www.w3.org/2000/svg" viewBox="0 0 30 29.04"><defs><style>.cls-1{fill:#1d3050;}</style></defs><g id="icons"><path id="icon_repeat_task" class="cls-1" d="M14.51,29.04c-3.88,0-7.52-1.51-10.27-4.25C-1.42,19.13-1.42,9.91,4.25,4.25,6.99,1.51,10.63,0,14.51,0c3.53,0,6.88,1.26,9.52,3.55l1.88-1.88c.45-.45,1.05-.7,1.69-.7.32,0,.62.06.92.18.9.37,1.48,1.24,1.48,2.21v7.76c0,1.32-1.07,2.39-2.39,2.39h-7.76c-.98,0-1.84-.58-2.21-1.48-.37-.9-.17-1.92.52-2.61l1.79-1.79c-1.54-1.22-3.44-1.89-5.43-1.89-2.34,0-4.54.91-6.2,2.57-3.42,3.42-3.42,8.98,0,12.39,1.66,1.66,3.86,2.57,6.2,2.57s4.54-.91,6.2-2.57c.54-.54,1.27-.84,2.04-.84s1.49.3,2.04.84c1.12,1.12,1.12,2.95,0,4.07-2.74,2.74-6.39,4.25-10.27,4.25Z"/></g></svg>