<?xml version="1.0" encoding="UTF-8"?><svg id="_Слой_2" xmlns="http://www.w3.org/2000/svg" width="50" height="50" viewBox="0 0 50 50"><g id="_Слой_2-2"><g id="_Слой_1-2"><path d="M0,0h50v50H0V0Z" style="fill:#f0db4f;"/><path d="M45.9,38.1c-.4-2.3-1.8-4.2-6.3-6-1.5-.7-3.2-1.2-3.8-2.4-.2-.7-.2-1.1,0-1.5.3-1.3,1.9-1.7,3.2-1.4.8.3,1.6.9,2,1.9q2.2-1.4,3.7-2.4c-.5-.9-.8-1.2-1.2-1.6-1.3-1.5-3.1-2.2-5.9-2.1-.5,0-1,.1-1.5.2-1.4.4-2.8,1.1-3.5,2.1-2.4,2.7-1.7,7.4,1.2,9.3,2.8,2.1,7,2.6,7.5,4.6.5,2.4-1.8,3.2-4.1,3-1.7-.3-2.6-1.2-3.7-2.8-1.2.7-2.5,1.5-3.8,2.2.5,1,.9,1.5,1.7,2.3,3.6,3.7,12.7,3.5,14.3-2.1,0-.2.5-1.5.2-3.4h0v.1ZM27.2,23h-4.7v12.1c0,4.1.1,4.9-.3,5.7-.7,1.4-2.5,1.2-3.3,1-.8-.4-1.2-1-1.7-1.8-.1-.2-.2-.4-.3-.4-1.3.8-2.5,1.5-3.8,2.3.6,1.3,1.6,2.4,2.8,3.2,1.8,1.1,4.2,1.4,6.7.8,1.6-.5,3-1.5,3.8-3,1.1-2,.8-4.3.8-7v-12.9h0Z" style="fill:#323330;"/><path d="M7.6,18.9h-2.8V5.05l-2.25,1.14v-2.94l2.48-1.38h2.57v17.04Z" style="fill:#323330;"/><path d="M13.11,18.47c-.73-.4-1.28-.99-1.66-1.76s-.57-1.7-.57-2.78h0c0-.64.08-1.29.23-1.99s.37-1.38.65-2.07c.05-.12.1-.23.15-.35s.1-.22.16-.33l3.59-7.34h3.09l-4.22,8.5-.4-.42c.2-.37.48-.65.86-.86s.81-.3,1.31-.3c.91,0,1.68.2,2.33.6s1.14.98,1.48,1.74.51,1.68.51,2.75h0c0,1.11-.19,2.04-.57,2.82s-.94,1.38-1.67,1.78-1.61.61-2.63.61-1.9-.2-2.62-.6ZM17.27,15.78c.36-.4.54-.97.54-1.71h0c0-.84-.18-1.48-.55-1.93s-.89-.67-1.58-.67c-.64,0-1.13.23-1.48.68s-.52,1.09-.52,1.92h0c0,.75.18,1.32.54,1.72s.87.59,1.52.59,1.18-.2,1.54-.6Z" style="fill:#323330;"/></g></g></svg>