<?xml version="1.0" encoding="UTF-8"?><svg id="_Слой_2" xmlns="http://www.w3.org/2000/svg" viewBox="0 0 30 30"><defs><style>.cls-1{fill:#1d3050;}</style></defs><g id="icons"><path id="icon_home" class="cls-1" d="M3.34,15.02h-1.5c-.92.09-1.74-.59-1.83-1.51-.06-.57.19-1.14.64-1.49C5.03,8.19,9.41,4.36,13.79.53c.86-.75,1.64-.7,2.59.14l11.54,10.15c.48.42.95.86,1.44,1.27.57.4.79,1.15.51,1.79-.23.67-.87,1.13-1.58,1.13h-1.64v12.54c0,1.68-.78,2.41-2.48,2.41h-3.59c-1.1.12-2.09-.67-2.21-1.77-.01-.13-.02-.27,0-.4v-5.69c0-1.39-.59-2-2.05-2h-2.84c-.89-.13-1.71.49-1.83,1.38-.02.13-.02.27,0,.41v5.69c.17,1.15-.61,2.22-1.76,2.4-.22.03-.44.03-.65,0h-3.61c-1.13.13-2.15-.69-2.28-1.82-.02-.15-.02-.3,0-.46v-12.68Z"/></g></svg>