<?xml version="1.0" encoding="UTF-8"?><svg id="_Слой_2" xmlns="http://www.w3.org/2000/svg" viewBox="0 0 50 50"><defs><style>.cls-1{fill:#f0db4f;}.cls-2{fill:#323330;}</style></defs><g id="_Слой_2-2"><g id="_Слой_1-2"><path class="cls-1" d="M0,0h50v50H0V0Z"/><path class="cls-2" d="M45.91,38.08c-.37-2.28-1.85-4.2-6.26-5.98-1.53-.7-3.24-1.21-3.75-2.37-.18-.67-.2-1.06-.09-1.46.33-1.33,1.91-1.74,3.17-1.36.81.27,1.57.89,2.03,1.89,2.16-1.4,2.15-1.39,3.66-2.35-.55-.86-.85-1.25-1.21-1.62-1.3-1.45-3.07-2.2-5.89-2.14-.49.06-.98.13-1.47.19-1.41.36-2.76,1.1-3.55,2.09-2.37,2.69-1.69,7.39,1.19,9.32,2.84,2.13,7.01,2.61,7.54,4.61.52,2.44-1.79,3.23-4.09,2.95-1.69-.35-2.63-1.21-3.65-2.78-1.25.72-2.51,1.45-3.8,2.19.46,1,.94,1.45,1.7,2.31,3.62,3.67,12.69,3.49,14.31-2.07.07-.19.5-1.46.15-3.43h0ZM27.18,22.98h-4.68c0,4.04-.02,8.05-.02,12.09,0,2.57.13,4.93-.29,5.65-.68,1.42-2.46,1.25-3.27.97-.82-.4-1.24-.98-1.73-1.79-.13-.23-.23-.41-.27-.43-1.27.77-2.53,1.55-3.8,2.33.63,1.3,1.56,2.42,2.76,3.16,1.78,1.07,4.18,1.4,6.68.82,1.63-.48,3.04-1.46,3.77-2.96,1.06-1.96.84-4.34.83-6.97.02-4.29,0-8.57,0-12.88h.02Z"/><path class="cls-2" d="M11.02,5.03h-5.55v-2.5h8.25v2.4l-4.3,15.1h-2.8l4.4-15Z"/></g></g></svg>