<svg xmlns="http://www.w3.org/2000/svg" width="100" height="100" viewBox="0 0 100 100">
  <defs>
    <style>
      .a {
        fill: #fff;
      }
    </style>
  </defs>
  <g>
    <rect class="a" width="100" height="100"/>
    <rect x="0.6" y="0.6" width="3.4" height="3.4"/>
    <rect x="4" y="0.6" width="3.4" height="3.4"/>
    <rect x="7.4" y="0.6" width="3.4" height="3.4"/>
    <rect x="10.8" y="0.6" width="3.4" height="3.4"/>
    <rect x="14.2" y="0.6" width="3.4" height="3.4"/>
    <rect x="17.6" y="0.6" width="3.4" height="3.4"/>
    <rect x="21" y="0.6" width="3.4" height="3.4"/>
    <rect x="27.8" y="0.6" width="3.4" height="3.4"/>
    <rect x="41.4" y="0.6" width="3.4" height="3.4"/>
    <rect x="48.2" y="0.6" width="3.4" height="3.4"/>
    <rect x="51.6" y="0.6" width="3.4" height="3.4"/>
    <rect x="55" y="0.6" width="3.4" height="3.4"/>
    <rect x="75.4" y="0.6" width="3.4" height="3.4"/>
    <rect x="78.8" y="0.6" width="3.4" height="3.4"/>
    <rect x="82.2" y="0.6" width="3.4" height="3.4"/>
    <rect x="85.6" y="0.6" width="3.4" height="3.4"/>
    <rect x="89" y="0.6" width="3.4" height="3.4"/>
    <rect x="92.4" y="0.6" width="3.4" height="3.4"/>
    <rect x="95.8" y="0.6" width="3.4" height="3.4"/>
    <rect x="0.6" y="4" width="3.4" height="3.4"/>
    <rect x="21" y="4" width="3.4" height="3.4"/>
    <rect x="27.8" y="4" width="3.4" height="3.4"/>
    <rect x="31.2" y="4" width="3.4" height="3.4"/>
    <rect x="34.6" y="4" width="3.4" height="3.4"/>
    <rect x="38" y="4" width="3.4" height="3.4"/>
    <rect x="41.4" y="4" width="3.4" height="3.4"/>
    <rect x="48.2" y="4" width="3.4" height="3.4"/>
    <rect x="58.4" y="4" width="3.4" height="3.4"/>
    <rect x="61.8" y="4" width="3.4" height="3.4"/>
    <rect x="68.6" y="4" width="3.4" height="3.4"/>
    <rect x="75.4" y="4" width="3.4" height="3.4"/>
    <rect x="95.8" y="4" width="3.4" height="3.4"/>
    <rect x="0.6" y="7.4" width="3.4" height="3.4"/>
    <rect x="7.4" y="7.4" width="3.4" height="3.4"/>
    <rect x="10.8" y="7.4" width="3.4" height="3.4"/>
    <rect x="14.2" y="7.4" width="3.4" height="3.4"/>
    <rect x="21" y="7.4" width="3.4" height="3.4"/>
    <rect x="27.8" y="7.4" width="3.4" height="3.4"/>
    <rect x="34.6" y="7.4" width="3.4" height="3.4"/>
    <rect x="41.4" y="7.4" width="3.4" height="3.4"/>
    <rect x="44.8" y="7.4" width="3.4" height="3.4"/>
    <rect x="51.6" y="7.4" width="3.4" height="3.4"/>
    <rect x="55" y="7.4" width="3.4" height="3.4"/>
    <rect x="75.4" y="7.4" width="3.4" height="3.4"/>
    <rect x="82.2" y="7.4" width="3.4" height="3.4"/>
    <rect x="85.6" y="7.4" width="3.4" height="3.4"/>
    <rect x="89" y="7.4" width="3.4" height="3.4"/>
    <rect x="95.8" y="7.4" width="3.4" height="3.4"/>
    <rect x="0.6" y="10.8" width="3.4" height="3.4"/>
    <rect x="7.4" y="10.8" width="3.4" height="3.4"/>
    <rect x="10.8" y="10.8" width="3.4" height="3.4"/>
    <rect x="14.2" y="10.8" width="3.4" height="3.4"/>
    <rect x="21" y="10.8" width="3.4" height="3.4"/>
    <rect x="44.8" y="10.8" width="3.4" height="3.4"/>
    <rect x="58.4" y="10.8" width="3.4" height="3.4"/>
    <rect x="68.6" y="10.8" width="3.4" height="3.4"/>
    <rect x="75.4" y="10.8" width="3.4" height="3.4"/>
    <rect x="82.2" y="10.8" width="3.4" height="3.4"/>
    <rect x="85.6" y="10.8" width="3.4" height="3.4"/>
    <rect x="89" y="10.8" width="3.4" height="3.4"/>
    <rect x="95.8" y="10.8" width="3.4" height="3.4"/>
    <rect x="0.6" y="14.2" width="3.4" height="3.4"/>
    <rect x="7.4" y="14.2" width="3.4" height="3.4"/>
    <rect x="10.8" y="14.2" width="3.4" height="3.4"/>
    <rect x="14.2" y="14.2" width="3.4" height="3.4"/>
    <rect x="21" y="14.2" width="3.4" height="3.4"/>
    <rect x="34.6" y="14.2" width="3.4" height="3.4"/>
    <rect x="41.4" y="14.2" width="3.4" height="3.4"/>
    <rect x="51.6" y="14.2" width="3.4" height="3.4"/>
    <rect x="55" y="14.2" width="3.4" height="3.4"/>
    <rect x="58.4" y="14.2" width="3.4" height="3.4"/>
    <rect x="75.4" y="14.2" width="3.4" height="3.4"/>
    <rect x="82.2" y="14.2" width="3.4" height="3.4"/>
    <rect x="85.6" y="14.2" width="3.4" height="3.4"/>
    <rect x="89" y="14.2" width="3.4" height="3.4"/>
    <rect x="95.8" y="14.2" width="3.4" height="3.4"/>
    <rect x="0.6" y="17.6" width="3.4" height="3.4"/>
    <rect x="21" y="17.6" width="3.4" height="3.4"/>
    <rect x="27.8" y="17.6" width="3.4" height="3.4"/>
    <rect x="31.2" y="17.6" width="3.4" height="3.4"/>
    <rect x="38" y="17.6" width="3.4" height="3.4"/>
    <rect x="41.4" y="17.6" width="3.4" height="3.4"/>
    <rect x="44.8" y="17.6" width="3.4" height="3.4"/>
    <rect x="51.6" y="17.6" width="3.4" height="3.4"/>
    <rect x="58.4" y="17.6" width="3.4" height="3.4"/>
    <rect x="65.2" y="17.6" width="3.4" height="3.4"/>
    <rect x="68.6" y="17.6" width="3.4" height="3.4"/>
    <rect x="75.4" y="17.6" width="3.4" height="3.4"/>
    <rect x="95.8" y="17.6" width="3.4" height="3.4"/>
    <rect x="0.6" y="21" width="3.4" height="3.4"/>
    <rect x="4" y="21" width="3.4" height="3.4"/>
    <rect x="7.4" y="21" width="3.4" height="3.4"/>
    <rect x="10.8" y="21" width="3.4" height="3.4"/>
    <rect x="14.2" y="21" width="3.4" height="3.4"/>
    <rect x="17.6" y="21" width="3.4" height="3.4"/>
    <rect x="21" y="21" width="3.4" height="3.4"/>
    <rect x="27.8" y="21" width="3.4" height="3.4"/>
    <rect x="34.6" y="21" width="3.4" height="3.4"/>
    <rect x="41.4" y="21" width="3.4" height="3.4"/>
    <rect x="48.2" y="21" width="3.4" height="3.4"/>
    <rect x="55" y="21" width="3.4" height="3.4"/>
    <rect x="61.8" y="21" width="3.4" height="3.4"/>
    <rect x="68.6" y="21" width="3.4" height="3.4"/>
    <rect x="75.4" y="21" width="3.4" height="3.4"/>
    <rect x="78.8" y="21" width="3.4" height="3.4"/>
    <rect x="82.2" y="21" width="3.4" height="3.4"/>
    <rect x="85.6" y="21" width="3.4" height="3.4"/>
    <rect x="89" y="21" width="3.4" height="3.4"/>
    <rect x="92.4" y="21" width="3.4" height="3.4"/>
    <rect x="95.8" y="21" width="3.4" height="3.4"/>
    <rect x="27.8" y="24.4" width="3.4" height="3.4"/>
    <rect x="38" y="24.4" width="3.4" height="3.4"/>
    <rect x="41.4" y="24.4" width="3.4" height="3.4"/>
    <rect x="44.8" y="24.4" width="3.4" height="3.4"/>
    <rect x="48.2" y="24.4" width="3.4" height="3.4"/>
    <rect x="55" y="24.4" width="3.4" height="3.4"/>
    <rect x="58.4" y="24.4" width="3.4" height="3.4"/>
    <rect x="61.8" y="24.4" width="3.4" height="3.4"/>
    <rect x="65.2" y="24.4" width="3.4" height="3.4"/>
    <rect x="7.4" y="27.8" width="3.4" height="3.4"/>
    <rect x="10.8" y="27.8" width="3.4" height="3.4"/>
    <rect x="14.2" y="27.8" width="3.4" height="3.4"/>
    <rect x="21" y="27.8" width="3.4" height="3.4"/>
    <rect x="27.8" y="27.8" width="3.4" height="3.4"/>
    <rect x="51.6" y="27.8" width="3.4" height="3.4"/>
    <rect x="72" y="27.8" width="3.4" height="3.4"/>
    <rect x="75.4" y="27.8" width="3.4" height="3.4"/>
    <rect x="78.8" y="27.8" width="3.4" height="3.4"/>
    <rect x="89" y="27.8" width="3.4" height="3.4"/>
    <rect x="92.4" y="27.8" width="3.4" height="3.4"/>
    <rect x="95.8" y="27.8" width="3.4" height="3.4"/>
    <rect x="7.4" y="31.2" width="3.4" height="3.4"/>
    <rect x="10.8" y="31.2" width="3.4" height="3.4"/>
    <rect x="14.2" y="31.2" width="3.4" height="3.4"/>
    <rect x="17.6" y="31.2" width="3.4" height="3.4"/>
    <rect x="24.4" y="31.2" width="3.4" height="3.4"/>
    <rect x="31.2" y="31.2" width="3.4" height="3.4"/>
    <rect x="38" y="31.2" width="3.4" height="3.4"/>
    <rect x="44.8" y="31.2" width="3.4" height="3.4"/>
    <rect x="48.2" y="31.2" width="3.4" height="3.4"/>
    <rect x="58.4" y="31.2" width="3.4" height="3.4"/>
    <rect x="61.8" y="31.2" width="3.4" height="3.4"/>
    <rect x="68.6" y="31.2" width="3.4" height="3.4"/>
    <rect x="82.2" y="31.2" width="3.4" height="3.4"/>
    <rect x="0.6" y="34.6" width="3.4" height="3.4"/>
    <rect x="4" y="34.6" width="3.4" height="3.4"/>
    <rect x="17.6" y="34.6" width="3.4" height="3.4"/>
    <rect x="21" y="34.6" width="3.4" height="3.4"/>
    <rect x="31.2" y="34.6" width="3.4" height="3.4"/>
    <rect x="38" y="34.6" width="3.4" height="3.4"/>
    <rect x="41.4" y="34.6" width="3.4" height="3.4"/>
    <rect x="51.6" y="34.6" width="3.4" height="3.4"/>
    <rect x="55" y="34.6" width="3.4" height="3.4"/>
    <rect x="58.4" y="34.6" width="3.4" height="3.4"/>
    <rect x="61.8" y="34.6" width="3.4" height="3.4"/>
    <rect x="65.2" y="34.6" width="3.4" height="3.4"/>
    <rect x="72" y="34.6" width="3.4" height="3.4"/>
    <rect x="78.8" y="34.6" width="3.4" height="3.4"/>
    <rect x="85.6" y="34.6" width="3.4" height="3.4"/>
    <rect x="89" y="34.6" width="3.4" height="3.4"/>
    <rect x="92.4" y="34.6" width="3.4" height="3.4"/>
    <rect x="0.6" y="38" width="3.4" height="3.4"/>
    <rect x="7.4" y="38" width="3.4" height="3.4"/>
    <rect x="10.8" y="38" width="3.4" height="3.4"/>
    <rect x="17.6" y="38" width="3.4" height="3.4"/>
    <rect x="24.4" y="38" width="3.4" height="3.4"/>
    <rect x="31.2" y="38" width="3.4" height="3.4"/>
    <rect x="34.6" y="38" width="3.4" height="3.4"/>
    <rect x="38" y="38" width="3.4" height="3.4"/>
    <rect x="41.4" y="38" width="3.4" height="3.4"/>
    <rect x="51.6" y="38" width="3.4" height="3.4"/>
    <rect x="55" y="38" width="3.4" height="3.4"/>
    <rect x="61.8" y="38" width="3.4" height="3.4"/>
    <rect x="65.2" y="38" width="3.4" height="3.4"/>
    <rect x="68.6" y="38" width="3.4" height="3.4"/>
    <rect x="72" y="38" width="3.4" height="3.4"/>
    <rect x="75.4" y="38" width="3.4" height="3.4"/>
    <rect x="82.2" y="38" width="3.4" height="3.4"/>
    <rect x="85.6" y="38" width="3.4" height="3.4"/>
    <rect x="0.6" y="41.4" width="3.4" height="3.4"/>
    <rect x="21" y="41.4" width="3.4" height="3.4"/>
    <rect x="27.8" y="41.4" width="3.4" height="3.4"/>
    <rect x="31.2" y="41.4" width="3.4" height="3.4"/>
    <rect x="58.4" y="41.4" width="3.4" height="3.4"/>
    <rect x="61.8" y="41.4" width="3.4" height="3.4"/>
    <rect x="65.2" y="41.4" width="3.4" height="3.4"/>
    <rect x="72" y="41.4" width="3.4" height="3.4"/>
    <rect x="75.4" y="41.4" width="3.4" height="3.4"/>
    <rect x="89" y="41.4" width="3.4" height="3.4"/>
    <rect x="92.4" y="41.4" width="3.4" height="3.4"/>
    <rect x="0.6" y="44.8" width="3.4" height="3.4"/>
    <rect x="7.4" y="44.8" width="3.4" height="3.4"/>
    <rect x="14.2" y="44.8" width="3.4" height="3.4"/>
    <rect x="24.4" y="44.8" width="3.4" height="3.4"/>
    <rect x="27.8" y="44.8" width="3.4" height="3.4"/>
    <rect x="41.4" y="44.8" width="3.4" height="3.4"/>
    <rect x="44.8" y="44.8" width="3.4" height="3.4"/>
    <rect x="48.2" y="44.8" width="3.4" height="3.4"/>
    <rect x="58.4" y="44.8" width="3.4" height="3.4"/>
    <rect x="61.8" y="44.8" width="3.4" height="3.4"/>
    <rect x="75.4" y="44.8" width="3.4" height="3.4"/>
    <rect x="85.6" y="44.8" width="3.4" height="3.4"/>
    <rect x="95.8" y="44.8" width="3.4" height="3.4"/>
    <rect x="0.6" y="48.2" width="3.4" height="3.4"/>
    <rect x="4" y="48.2" width="3.4" height="3.4"/>
    <rect x="7.4" y="48.2" width="3.4" height="3.4"/>
    <rect x="17.6" y="48.2" width="3.4" height="3.4"/>
    <rect x="21" y="48.2" width="3.4" height="3.4"/>
    <rect x="31.2" y="48.2" width="3.4" height="3.4"/>
    <rect x="41.4" y="48.2" width="3.4" height="3.4"/>
    <rect x="44.8" y="48.2" width="3.4" height="3.4"/>
    <rect x="48.2" y="48.2" width="3.4" height="3.4"/>
    <rect x="51.6" y="48.2" width="3.4" height="3.4"/>
    <rect x="55" y="48.2" width="3.4" height="3.4"/>
    <rect x="58.4" y="48.2" width="3.4" height="3.4"/>
    <rect x="61.8" y="48.2" width="3.4" height="3.4"/>
    <rect x="68.6" y="48.2" width="3.4" height="3.4"/>
    <rect x="72" y="48.2" width="3.4" height="3.4"/>
    <rect x="78.8" y="48.2" width="3.4" height="3.4"/>
    <rect x="85.6" y="48.2" width="3.4" height="3.4"/>
    <rect x="89" y="48.2" width="3.4" height="3.4"/>
    <rect x="92.4" y="48.2" width="3.4" height="3.4"/>
    <rect x="0.6" y="51.6" width="3.4" height="3.4"/>
    <rect x="10.8" y="51.6" width="3.4" height="3.4"/>
    <rect x="14.2" y="51.6" width="3.4" height="3.4"/>
    <rect x="24.4" y="51.6" width="3.4" height="3.4"/>
    <rect x="31.2" y="51.6" width="3.4" height="3.4"/>
    <rect x="41.4" y="51.6" width="3.4" height="3.4"/>
    <rect x="48.2" y="51.6" width="3.4" height="3.4"/>
    <rect x="51.6" y="51.6" width="3.4" height="3.4"/>
    <rect x="55" y="51.6" width="3.4" height="3.4"/>
    <rect x="65.2" y="51.6" width="3.4" height="3.4"/>
    <rect x="72" y="51.6" width="3.4" height="3.4"/>
    <rect x="82.2" y="51.6" width="3.4" height="3.4"/>
    <rect x="85.6" y="51.6" width="3.4" height="3.4"/>
    <rect x="95.8" y="51.6" width="3.4" height="3.4"/>
    <rect x="7.4" y="55" width="3.4" height="3.4"/>
    <rect x="14.2" y="55" width="3.4" height="3.4"/>
    <rect x="17.6" y="55" width="3.4" height="3.4"/>
    <rect x="21" y="55" width="3.4" height="3.4"/>
    <rect x="27.8" y="55" width="3.4" height="3.4"/>
    <rect x="31.2" y="55" width="3.4" height="3.4"/>
    <rect x="34.6" y="55" width="3.4" height="3.4"/>
    <rect x="38" y="55" width="3.4" height="3.4"/>
    <rect x="48.2" y="55" width="3.4" height="3.4"/>
    <rect x="51.6" y="55" width="3.4" height="3.4"/>
    <rect x="55" y="55" width="3.4" height="3.4"/>
    <rect x="58.4" y="55" width="3.4" height="3.4"/>
    <rect x="68.6" y="55" width="3.4" height="3.4"/>
    <rect x="72" y="55" width="3.4" height="3.4"/>
    <rect x="82.2" y="55" width="3.4" height="3.4"/>
    <rect x="92.4" y="55" width="3.4" height="3.4"/>
    <rect x="0.6" y="58.4" width="3.4" height="3.4"/>
    <rect x="7.4" y="58.4" width="3.4" height="3.4"/>
    <rect x="14.2" y="58.4" width="3.4" height="3.4"/>
    <rect x="17.6" y="58.4" width="3.4" height="3.4"/>
    <rect x="27.8" y="58.4" width="3.4" height="3.4"/>
    <rect x="31.2" y="58.4" width="3.4" height="3.4"/>
    <rect x="41.4" y="58.4" width="3.4" height="3.4"/>
    <rect x="44.8" y="58.4" width="3.4" height="3.4"/>
    <rect x="48.2" y="58.4" width="3.4" height="3.4"/>
    <rect x="51.6" y="58.4" width="3.4" height="3.4"/>
    <rect x="61.8" y="58.4" width="3.4" height="3.4"/>
    <rect x="72" y="58.4" width="3.4" height="3.4"/>
    <rect x="92.4" y="58.4" width="3.4" height="3.4"/>
    <rect x="0.6" y="61.8" width="3.4" height="3.4"/>
    <rect x="7.4" y="61.8" width="3.4" height="3.4"/>
    <rect x="14.2" y="61.8" width="3.4" height="3.4"/>
    <rect x="21" y="61.8" width="3.4" height="3.4"/>
    <rect x="24.4" y="61.8" width="3.4" height="3.4"/>
    <rect x="38" y="61.8" width="3.4" height="3.4"/>
    <rect x="68.6" y="61.8" width="3.4" height="3.4"/>
    <rect x="72" y="61.8" width="3.4" height="3.4"/>
    <rect x="78.8" y="61.8" width="3.4" height="3.4"/>
    <rect x="85.6" y="61.8" width="3.4" height="3.4"/>
    <rect x="89" y="61.8" width="3.4" height="3.4"/>
    <rect x="0.6" y="65.2" width="3.4" height="3.4"/>
    <rect x="17.6" y="65.2" width="3.4" height="3.4"/>
    <rect x="24.4" y="65.2" width="3.4" height="3.4"/>
    <rect x="31.2" y="65.2" width="3.4" height="3.4"/>
    <rect x="34.6" y="65.2" width="3.4" height="3.4"/>
    <rect x="41.4" y="65.2" width="3.4" height="3.4"/>
    <rect x="48.2" y="65.2" width="3.4" height="3.4"/>
    <rect x="51.6" y="65.2" width="3.4" height="3.4"/>
    <rect x="55" y="65.2" width="3.4" height="3.4"/>
    <rect x="58.4" y="65.2" width="3.4" height="3.4"/>
    <rect x="75.4" y="65.2" width="3.4" height="3.4"/>
    <rect x="82.2" y="65.2" width="3.4" height="3.4"/>
    <rect x="89" y="65.2" width="3.4" height="3.4"/>
    <rect x="92.4" y="65.2" width="3.4" height="3.4"/>
    <rect x="95.8" y="65.2" width="3.4" height="3.4"/>
    <rect x="0.6" y="68.6" width="3.4" height="3.4"/>
    <rect x="7.4" y="68.6" width="3.4" height="3.4"/>
    <rect x="10.8" y="68.6" width="3.4" height="3.4"/>
    <rect x="14.2" y="68.6" width="3.4" height="3.4"/>
    <rect x="21" y="68.6" width="3.4" height="3.4"/>
    <rect x="24.4" y="68.6" width="3.4" height="3.4"/>
    <rect x="38" y="68.6" width="3.4" height="3.4"/>
    <rect x="44.8" y="68.6" width="3.4" height="3.4"/>
    <rect x="51.6" y="68.6" width="3.4" height="3.4"/>
    <rect x="58.4" y="68.6" width="3.4" height="3.4"/>
    <rect x="61.8" y="68.6" width="3.4" height="3.4"/>
    <rect x="68.6" y="68.6" width="3.4" height="3.4"/>
    <rect x="72" y="68.6" width="3.4" height="3.4"/>
    <rect x="75.4" y="68.6" width="3.4" height="3.4"/>
    <rect x="78.8" y="68.6" width="3.4" height="3.4"/>
    <rect x="82.2" y="68.6" width="3.4" height="3.4"/>
    <rect x="85.6" y="68.6" width="3.4" height="3.4"/>
    <rect x="92.4" y="68.6" width="3.4" height="3.4"/>
    <rect x="95.8" y="68.6" width="3.4" height="3.4"/>
    <rect x="27.8" y="72" width="3.4" height="3.4"/>
    <rect x="31.2" y="72" width="3.4" height="3.4"/>
    <rect x="38" y="72" width="3.4" height="3.4"/>
    <rect x="41.4" y="72" width="3.4" height="3.4"/>
    <rect x="44.8" y="72" width="3.4" height="3.4"/>
    <rect x="55" y="72" width="3.4" height="3.4"/>
    <rect x="68.6" y="72" width="3.4" height="3.4"/>
    <rect x="82.2" y="72" width="3.4" height="3.4"/>
    <rect x="85.6" y="72" width="3.4" height="3.4"/>
    <rect x="92.4" y="72" width="3.4" height="3.4"/>
    <rect x="0.6" y="75.4" width="3.4" height="3.4"/>
    <rect x="4" y="75.4" width="3.4" height="3.4"/>
    <rect x="7.4" y="75.4" width="3.4" height="3.4"/>
    <rect x="10.8" y="75.4" width="3.4" height="3.4"/>
    <rect x="14.2" y="75.4" width="3.4" height="3.4"/>
    <rect x="17.6" y="75.4" width="3.4" height="3.4"/>
    <rect x="21" y="75.4" width="3.4" height="3.4"/>
    <rect x="38" y="75.4" width="3.4" height="3.4"/>
    <rect x="41.4" y="75.4" width="3.4" height="3.4"/>
    <rect x="48.2" y="75.4" width="3.4" height="3.4"/>
    <rect x="51.6" y="75.4" width="3.4" height="3.4"/>
    <rect x="55" y="75.4" width="3.4" height="3.4"/>
    <rect x="68.6" y="75.4" width="3.4" height="3.4"/>
    <rect x="75.4" y="75.4" width="3.4" height="3.4"/>
    <rect x="82.2" y="75.4" width="3.4" height="3.4"/>
    <rect x="89" y="75.4" width="3.4" height="3.4"/>
    <rect x="92.4" y="75.4" width="3.4" height="3.4"/>
    <rect x="95.8" y="75.4" width="3.4" height="3.4"/>
    <rect x="0.6" y="78.8" width="3.4" height="3.4"/>
    <rect x="21" y="78.8" width="3.4" height="3.4"/>
    <rect x="31.2" y="78.8" width="3.4" height="3.4"/>
    <rect x="34.6" y="78.8" width="3.4" height="3.4"/>
    <rect x="38" y="78.8" width="3.4" height="3.4"/>
    <rect x="41.4" y="78.8" width="3.4" height="3.4"/>
    <rect x="48.2" y="78.8" width="3.4" height="3.4"/>
    <rect x="51.6" y="78.8" width="3.4" height="3.4"/>
    <rect x="55" y="78.8" width="3.4" height="3.4"/>
    <rect x="58.4" y="78.8" width="3.4" height="3.4"/>
    <rect x="61.8" y="78.8" width="3.4" height="3.4"/>
    <rect x="68.6" y="78.8" width="3.4" height="3.4"/>
    <rect x="82.2" y="78.8" width="3.4" height="3.4"/>
    <rect x="85.6" y="78.8" width="3.4" height="3.4"/>
    <rect x="95.8" y="78.8" width="3.4" height="3.4"/>
    <rect x="0.6" y="82.2" width="3.4" height="3.4"/>
    <rect x="7.4" y="82.2" width="3.4" height="3.4"/>
    <rect x="10.8" y="82.2" width="3.4" height="3.4"/>
    <rect x="14.2" y="82.2" width="3.4" height="3.4"/>
    <rect x="21" y="82.2" width="3.4" height="3.4"/>
    <rect x="27.8" y="82.2" width="3.4" height="3.4"/>
    <rect x="31.2" y="82.2" width="3.4" height="3.4"/>
    <rect x="34.6" y="82.2" width="3.4" height="3.4"/>
    <rect x="51.6" y="82.2" width="3.4" height="3.4"/>
    <rect x="55" y="82.2" width="3.4" height="3.4"/>
    <rect x="58.4" y="82.2" width="3.4" height="3.4"/>
    <rect x="61.8" y="82.2" width="3.4" height="3.4"/>
    <rect x="65.2" y="82.2" width="3.4" height="3.4"/>
    <rect x="68.6" y="82.2" width="3.4" height="3.4"/>
    <rect x="72" y="82.2" width="3.4" height="3.4"/>
    <rect x="75.4" y="82.2" width="3.4" height="3.4"/>
    <rect x="78.8" y="82.2" width="3.4" height="3.4"/>
    <rect x="82.2" y="82.2" width="3.4" height="3.4"/>
    <rect x="85.6" y="82.2" width="3.4" height="3.4"/>
    <rect x="92.4" y="82.2" width="3.4" height="3.4"/>
    <rect x="0.6" y="85.6" width="3.4" height="3.4"/>
    <rect x="7.4" y="85.6" width="3.4" height="3.4"/>
    <rect x="10.8" y="85.6" width="3.4" height="3.4"/>
    <rect x="14.2" y="85.6" width="3.4" height="3.4"/>
    <rect x="21" y="85.6" width="3.4" height="3.4"/>
    <rect x="27.8" y="85.6" width="3.4" height="3.4"/>
    <rect x="31.2" y="85.6" width="3.4" height="3.4"/>
    <rect x="41.4" y="85.6" width="3.4" height="3.4"/>
    <rect x="51.6" y="85.6" width="3.4" height="3.4"/>
    <rect x="55" y="85.6" width="3.4" height="3.4"/>
    <rect x="65.2" y="85.6" width="3.4" height="3.4"/>
    <rect x="68.6" y="85.6" width="3.4" height="3.4"/>
    <rect x="72" y="85.6" width="3.4" height="3.4"/>
    <rect x="82.2" y="85.6" width="3.4" height="3.4"/>
    <rect x="0.6" y="89" width="3.4" height="3.4"/>
    <rect x="7.4" y="89" width="3.4" height="3.4"/>
    <rect x="10.8" y="89" width="3.4" height="3.4"/>
    <rect x="14.2" y="89" width="3.4" height="3.4"/>
    <rect x="21" y="89" width="3.4" height="3.4"/>
    <rect x="27.8" y="89" width="3.4" height="3.4"/>
    <rect x="31.2" y="89" width="3.4" height="3.4"/>
    <rect x="34.6" y="89" width="3.4" height="3.4"/>
    <rect x="38" y="89" width="3.4" height="3.4"/>
    <rect x="41.4" y="89" width="3.4" height="3.4"/>
    <rect x="44.8" y="89" width="3.4" height="3.4"/>
    <rect x="48.2" y="89" width="3.4" height="3.4"/>
    <rect x="61.8" y="89" width="3.4" height="3.4"/>
    <rect x="75.4" y="89" width="3.4" height="3.4"/>
    <rect x="78.8" y="89" width="3.4" height="3.4"/>
    <rect x="85.6" y="89" width="3.4" height="3.4"/>
    <rect x="89" y="89" width="3.4" height="3.4"/>
    <rect x="92.4" y="89" width="3.4" height="3.4"/>
    <rect x="0.6" y="92.4" width="3.4" height="3.4"/>
    <rect x="21" y="92.4" width="3.4" height="3.4"/>
    <rect x="31.2" y="92.4" width="3.4" height="3.4"/>
    <rect x="34.6" y="92.4" width="3.4" height="3.4"/>
    <rect x="38" y="92.4" width="3.4" height="3.4"/>
    <rect x="48.2" y="92.4" width="3.4" height="3.4"/>
    <rect x="55" y="92.4" width="3.4" height="3.4"/>
    <rect x="58.4" y="92.4" width="3.4" height="3.4"/>
    <rect x="75.4" y="92.4" width="3.4" height="3.4"/>
    <rect x="89" y="92.4" width="3.4" height="3.4"/>
    <rect x="95.8" y="92.4" width="3.4" height="3.4"/>
    <rect x="0.6" y="95.8" width="3.4" height="3.4"/>
    <rect x="4" y="95.8" width="3.4" height="3.4"/>
    <rect x="7.4" y="95.8" width="3.4" height="3.4"/>
    <rect x="10.8" y="95.8" width="3.4" height="3.4"/>
    <rect x="14.2" y="95.8" width="3.4" height="3.4"/>
    <rect x="17.6" y="95.8" width="3.4" height="3.4"/>
    <rect x="21" y="95.8" width="3.4" height="3.4"/>
    <rect x="41.4" y="95.8" width="3.4" height="3.4"/>
    <rect x="44.8" y="95.8" width="3.4" height="3.4"/>
    <rect x="51.6" y="95.8" width="3.4" height="3.4"/>
    <rect x="55" y="95.8" width="3.4" height="3.4"/>
    <rect x="65.2" y="95.8" width="3.4" height="3.4"/>
    <rect x="68.6" y="95.8" width="3.4" height="3.4"/>
    <rect x="72" y="95.8" width="3.4" height="3.4"/>
    <rect x="75.4" y="95.8" width="3.4" height="3.4"/>
    <rect x="78.8" y="95.8" width="3.4" height="3.4"/>
    <rect x="82.2" y="95.8" width="3.4" height="3.4"/>
  </g>
</svg>
