<?xml version="1.0" encoding="UTF-8"?><svg id="_Слой_2" xmlns="http://www.w3.org/2000/svg" viewBox="0 0 50 50"><defs><style>.cls-1{fill:#f0db4f;}.cls-2{fill:#323330;}</style></defs><g id="_Слой_2-2"><g id="_Слой_1-2"><path class="cls-1" d="M0,0h50v50H0V0Z"/><path class="cls-2" d="M45.91,38.08c-.37-2.28-1.85-4.2-6.26-5.98-1.53-.7-3.24-1.21-3.75-2.37-.18-.67-.2-1.06-.09-1.46.33-1.33,1.91-1.74,3.17-1.36.81.27,1.57.89,2.03,1.89,2.16-1.4,2.15-1.39,3.66-2.35-.55-.86-.85-1.25-1.21-1.62-1.3-1.45-3.07-2.2-5.89-2.14-.49.06-.98.13-1.47.19-1.41.36-2.76,1.1-3.55,2.09-2.37,2.69-1.69,7.39,1.19,9.32,2.84,2.13,7.01,2.61,7.54,4.61.52,2.44-1.79,3.23-4.09,2.95-1.69-.35-2.63-1.21-3.65-2.78-1.25.72-2.51,1.45-3.8,2.19.46,1,.94,1.45,1.7,2.31,3.62,3.67,12.69,3.49,14.31-2.07.07-.19.5-1.46.15-3.43h0ZM27.18,22.98h-4.68c0,4.04-.02,8.05-.02,12.09,0,2.57.13,4.93-.29,5.65-.68,1.42-2.46,1.25-3.27.97-.82-.4-1.24-.98-1.73-1.79-.13-.23-.23-.41-.27-.43-1.27.77-2.53,1.55-3.8,2.33.63,1.3,1.56,2.42,2.76,3.16,1.78,1.07,4.18,1.4,6.68.82,1.63-.48,3.04-1.46,3.77-2.96,1.06-1.96.84-4.34.83-6.97.02-4.29,0-8.57,0-12.88h.02Z"/><path class="cls-2" d="M7.09,20.99c-.63-.32-1.11-.78-1.45-1.38-.33-.6-.5-1.32-.5-2.16v-1.09h3.05v1.03c0,.23.04.42.13.59.09.16.22.29.4.37.17.08.38.13.63.13.35,0,.62-.1.82-.31.2-.2.3-.49.3-.85v-2.53c0-.4-.1-.71-.31-.93-.2-.22-.48-.33-.84-.33h-.96v-2.98h.96c.27,0,.48-.1.63-.29.15-.2.23-.47.23-.83v-2.2c0-.28-.07-.49-.22-.65-.15-.16-.35-.24-.61-.24-.19,0-.35.04-.48.11-.13.07-.24.18-.31.31-.07.13-.1.3-.1.49v1.21h-3.04v-1.21c0-.82.16-1.53.47-2.11.31-.59.77-1.03,1.36-1.34.59-.3,1.31-.46,2.15-.46,1.21,0,2.15.34,2.81,1.02.66.68.99,1.64.99,2.88v2.37c0,.46-.15.89-.45,1.31-.3.42-.71.78-1.25,1.09.63.2,1.11.53,1.46.99.35.46.52,1,.52,1.62v2.7c0,.87-.16,1.62-.49,2.24-.33.62-.8,1.09-1.42,1.42-.62.32-1.37.48-2.24.48s-1.63-.16-2.26-.48Z"/></g></g></svg>