<?xml version="1.0" encoding="UTF-8"?><svg id="_Слой_2" xmlns="http://www.w3.org/2000/svg" viewBox="0 0 50 50"><defs><style>.cls-1{fill:#f0db4f;}.cls-2{fill:#323330;}</style></defs><g id="_Слой_2-2"><g id="_Слой_1-2"><path class="cls-1" d="M0,0h50v50H0V0Z"/><path class="cls-2" d="M45.9,38.1c-.4-2.3-1.8-4.2-6.3-6-1.5-.7-3.2-1.2-3.8-2.4-.2-.7-.2-1.1,0-1.5.3-1.3,1.9-1.7,3.2-1.4.8.3,1.6.9,2,1.9q2.2-1.4,3.7-2.4c-.5-.9-.8-1.2-1.2-1.6-1.3-1.5-3.1-2.2-5.9-2.1-.5,0-1,.1-1.5.2-1.4.4-2.8,1.1-3.5,2.1-2.4,2.7-1.7,7.4,1.2,9.3,2.8,2.1,7,2.6,7.5,4.6.5,2.4-1.8,3.2-4.1,3-1.7-.3-2.6-1.2-3.7-2.8-1.2.7-2.5,1.5-3.8,2.2.5,1,.9,1.5,1.7,2.3,3.6,3.7,12.7,3.5,14.3-2.1,0-.2.5-1.5.2-3.4h0v.1ZM27.2,23h-4.7v12.1c0,4.1.1,4.9-.3,5.7-.7,1.4-2.5,1.2-3.3,1-.8-.4-1.2-1-1.7-1.8-.1-.2-.2-.4-.3-.4-1.3.8-2.5,1.5-3.8,2.3.6,1.3,1.6,2.4,2.8,3.2,1.8,1.1,4.2,1.4,6.7.8,1.6-.5,3-1.5,3.8-3,1.1-2,.8-4.3.8-7v-12.9h0Z"/><path class="cls-2" d="M9.3,20.32h-3.34V6.51l-2.16.82v-3.55l2.65-1.2h2.86v17.75Z"/><path class="cls-2" d="M17.61,20.32h-3.34V6.51l-2.16.82v-3.55l2.65-1.2h2.86v17.75Z"/></g></g></svg>