<?xml version="1.0" encoding="utf-8"?>
<!-- Generator: Adobe Illustrator 24.1.2, SVG Export Plug-In . SVG Version: 6.00 Build 0)  -->
<svg version="1.1" id="Слой_1" xmlns="http://www.w3.org/2000/svg" xmlns:xlink="http://www.w3.org/1999/xlink" x="0px" y="0px"
	 viewBox="0 0 60 60" style="enable-background:new 0 0 60 60;" xml:space="preserve">
<style type="text/css">
	.st0{fill:#63A814;}
	.st1{display:none;}
	.st2{display:inline;fill:#FFFFFF;}
	.st3{fill:#FFFFFF;}
</style>
<g>
	<circle class="st0" cx="30" cy="30" r="30"/>
	<g class="st1">
		<polygon class="st2" points="28.5,5.8 7,18.2 19.1,38.9 13.5,19.8 16.4,18 23.1,45.3 28.5,54.2 28.5,47.2 20.8,15.4 23.4,13.9 
			28.5,39.5 		"/>
		<polygon class="st2" points="31.5,5.8 31.5,27.8 41.9,27.8 36.5,36.9 36.3,30 31.5,30 31.5,54.2 50.3,23 36.3,22.9 36.5,13.9 
			46.5,19.8 46,20.8 53,18.3 		"/>
	</g>
</g>
<g>
	<g>
		<g>
			<path class="st3" d="M14.3,33.9c1.3,0.6,2.5,1.2,3.7,1.7c1.2,0.6,2.3,1.1,3.5,1.7c0.4,0.2,0.5,0.4,0.5,0.8c0,2.6,0,5.2,0,7.7
				c0,0.7,0.3,1.2,1.1,1.6c2.2,1,4.3,2.1,6.5,3.1c0.2,0.1,0.7,0.1,0.9,0c2.1-1,4.2-2,6.3-3c0.6-0.3,0.9-0.7,0.9-1.3
				c0-1.5,0-2.9,0-4.4c0-0.4-0.1-0.6-0.5-0.7c-7.4-3.5-14.8-7.1-22.2-10.6c-0.5-0.2-0.8-0.5-0.7-1c0-3.7,0-7.5,0-11.2
				c0-0.2,0-0.4,0-0.7c3.5,0,7,0,10.6,0c0,2.1,0,4.2,0,6.4c-0.9,0-1.9,0-2.9,0c0,0.8,0,1.5,0,2.2c0,0.2,0.3,0.4,0.6,0.5
				c4.6,2.2,9.1,4.4,13.7,6.6c2.8,1.4,5.7,2.7,8.5,4.1c0.4,0.2,0.6,0.4,0.6,0.8c0,3,0,6.1,0,9.1c0,2.3-1.2,4.1-3.5,5.2
				c-3.8,1.9-7.7,3.7-11.5,5.5c-0.2,0.1-0.6,0.1-0.8,0c-3.9-1.8-7.8-3.7-11.6-5.5c-2.5-1.2-3.7-3-3.7-5.4c0-4.1,0-8.3,0-12.4
				C14.3,34.4,14.3,34.2,14.3,33.9z"/>
			<path class="st3" d="M33.8,31c-2.6-1.2-5-2.4-7.4-3.6c-0.2-0.1-0.4-0.5-0.4-0.7c0-3.8,0-7.5,0-11.3c0-0.2,0-0.5,0-0.8
				c-5.2,0-10.4,0-15.6,0c0-1.7,0-3.3,0-5c0-0.7,0.9-1.3,1.8-1.5c0.3,0,0.7,0,1,0c11.1,0,22.2,0,33.3,0c2.1,0,2.8,0.6,2.8,2.3
				c0,1.3,0,2.7,0,4.1c-5.2,0-10.3,0-15.6,0C33.8,20.1,33.8,25.5,33.8,31z"/>
			<path class="st3" d="M37.8,24c-1,0-1.9,0-2.9,0c0-2.2,0-4.3,0-6.4c3.5,0,7,0,10.6,0c0,5.4,0,10.8,0,16.3c-1.7-0.8-3.3-1.6-5-2.4
				c-0.7-0.3-1.4-0.7-2.1-1c-0.5-0.2-0.6-0.5-0.6-0.9C37.8,27.8,37.8,25.9,37.8,24z"/>
			<path class="st3" d="M26.1,36.8c0.8,0.4,1.6,0.8,2.3,1.1c1.6,0.8,3.3,1.5,4.8,2.3c0.2,0.1,0.5,0.4,0.5,0.7c0,1.2,0,2.5,0,3.7
				c0,0.5-0.2,0.8-0.7,1c-0.9,0.4-1.7,0.8-2.5,1.2c-0.3,0.1-0.7,0.1-1,0c-1-0.4-1.9-0.8-2.8-1.3c-0.3-0.2-0.7-0.6-0.7-0.9
				c-0.1-2.5,0-5,0-7.5C26.1,37,26.1,36.9,26.1,36.8z"/>
		</g>
	</g>
</g>
</svg>
