<?xml version="1.0" encoding="UTF-8"?><svg id="_Слой_2" xmlns="http://www.w3.org/2000/svg" viewBox="0 0 65 65"><defs><style>.cls-1{fill:#f0db4f;}.cls-2{fill:#323330;}</style></defs><g id="_Слой_1-2"><path class="cls-1" d="M0,0v64.92h65V0H0Z"/><path class="cls-2" d="M29.29,45.24v-25.4c.02-.27-.09-.53-.3-.7-.41-.37-.79-.75-1.18-1.13l.06-.11h19.49c1.28-.05,2.54.34,3.57,1.1.69.5,1.09,1.3,1.07,2.15v5.48c0,.25,0,.39-.31.48l-8.53,2.89h-.25v-7.54h-4.55v13.32c.02.24-.11.47-.32.58l-3.84,2.57c-.06.03-.1.09-.11.16l17.87-6v.36c.04,7.85.04,15.71.04,23.55.05,1.1-.54,2.13-1.51,2.66-.91.54-1.95.81-3,.78h-13.76c-1.22.03-2.41-.36-3.38-1.09-.69-.48-1.09-1.27-1.06-2.11v-5.92l9.06-3v7.58h4.56v-13.32c-.03-.24.09-.48.31-.59,1.22-.8,2.42-1.61,3.62-2.41.13-.08.24-.19.33-.32l-17.88,5.98Z"/><path class="cls-2" d="M12.63,46.81v9.12h4.11c.36,0,.45-.1.44-.45V17.9h9.06v.39c0,12.97,0,25.94,0,38.89.02.88-.39,1.71-1.11,2.21-.87.65-1.92,1-3,1h-14.04c-1.75.09-3.4-.83-4.23-2.37-.17-.31-.27-.66-.3-1.02v-6.79c0-.21,0-.35.26-.44,2.88-.95,5.76-1.92,8.63-2.88.06-.03.12-.06.18-.08Z"/><path class="cls-2" d="M1.91,63.18V1.93h61.25v41.13h1.84V.07H.07v64.93h42v-1.82H1.91Z"/></g></svg>